<?xml version="1.0" encoding="UTF-8"?>
<svg width="52px" height="34px" viewBox="0 0 52 34" version="1.1" xmlns="http://www.w3.org/2000/svg" xmlns:xlink="http://www.w3.org/1999/xlink">
    <!-- Generator: Sketch 48.2 (47327) - http://www.bohemiancoding.com/sketch -->
    <title>civicidea_megaphone-02</title>
    <desc>Created with Sketch.</desc>
    <defs></defs>
    <g id="Desktop-HD" stroke="none" stroke-width="1" fill="none" fill-rule="evenodd" transform="translate(-49.000000, -34.000000)">
        <g id="header" transform="translate(50.000000, 34.000000)" stroke="#000000">
            <g id="Group-3">
                <g id="civicidea_megaphone-02">
                    <path d="M32.1,16 C30.2,10 30.3,4.4 32.2,2.7 C27.9,5.3 8.1,17.3 1.7,22.5 C0.6,23.4 -0.3,24.7 0.2,26.4 C0.8,28.1 2.2,28.6 3.6,28.7 C11.9,29.1 34.9,27.4 40,26.9 C37.4,26.5 34.1,22.1 32.1,16 Z" id="Shape" stroke-width="2" stroke-linejoin="round"></path>
                    <ellipse id="Oval" stroke-width="2.00000805" transform="translate(37.104110, 14.498670) rotate(-17.806226) translate(-37.104110, -14.498670) " cx="37.10411" cy="14.49867" rx="5.10002053" ry="12.9000519"></ellipse>
                    <path d="M37.1,14.5 L49.3,10.5" id="Shape" stroke-width="2"></path>
                    <path d="M35.5,9.6 L43.7,1.5" id="Shape" stroke-width="2"></path>
                    <path d="M38.7,19.4 L50,21.1" id="Shape" stroke-width="2"></path>
                    <path d="M13.3,28.5 C13.3,28.8 13.4,29.2 13.5,29.5 C14.2,31.5 16.3,32.7 18.4,32 C20.1,31.4 21.2,29.8 21.1,28.1 C18.4,28.3 15.7,28.4 13.3,28.5 Z" id="Shape" stroke-width="2"></path>
                    <path d="M23.1,8.3 C22.7,10.9 23,14.7 24.3,18.6 C25.6,22.5 27.4,25.8 29.3,27.7" id="Shape" stroke-width="2"></path>
                </g>
            </g>
        </g>
    </g>
</svg>